<svg width="316" height="143" viewBox="0 0 316 143" fill="none" xmlns="http://www.w3.org/2000/svg">
<path d="M1.9375 41.5625C1.9375 40.8958 1.875 40.3125 1.75 39.8125C1.66667 39.2708 1.5625 38.7708 1.4375 38.3125C1.35417 37.8542 1.29167 37.375 1.25 36.875C1.20833 36.375 1.27083 35.7917 1.4375 35.125C1.3125 34.75 1.1875 34.3958 1.0625 34.0625C0.9375 33.6875 0.8125 33.3125 0.6875 32.9375C0.770833 31.0625 1.14583 29.375 1.8125 27.875C2.47917 26.3333 3.29167 24.9375 4.25 23.6875C5.20833 22.3958 6.25 21.2292 7.375 20.1875C8.5 19.1042 9.58333 18.0625 10.625 17.0625C10.8333 17.2708 10.9792 17.3125 11.0625 17.1875C11.1875 17.0208 11.4375 16.9792 11.8125 17.0625C11.8542 16.8125 11.9792 16.5 12.1875 16.125C12.3958 15.75 12.6458 15.4167 12.9375 15.125C13.2708 14.7917 13.625 14.5208 14 14.3125C14.375 14.1042 14.7292 14.0208 15.0625 14.0625C15.4792 13.2708 16.1042 12.5833 16.9375 12C17.8125 11.375 18.6875 10.7708 19.5625 10.1875C20.4375 9.60417 21.2292 8.95833 21.9375 8.25C22.6458 7.54167 23.0833 6.66667 23.25 5.625H24.5C24 4.875 23.7708 4.10417 23.8125 3.3125C23.8542 2.47917 24.1042 1.8125 24.5625 1.3125C25.0625 0.770833 25.7292 0.4375 26.5625 0.3125C27.3958 0.1875 28.3542 0.395833 29.4375 0.9375C29.8958 1.02083 30.2083 0.9375 30.375 0.6875C30.5417 0.4375 30.8125 0.270833 31.1875 0.1875C33.1042 1.02083 34.8125 2.04167 36.3125 3.25C37.8125 4.45833 39.1667 5.83333 40.375 7.375C40.2917 7.5 40.1875 7.60417 40.0625 7.6875C39.9792 7.72917 39.8958 7.79167 39.8125 7.875C39.7292 7.91667 39.6667 7.97917 39.625 8.0625C39.625 8.14583 39.7083 8.25 39.875 8.375C41.2917 10.1667 42.5625 12.0833 43.6875 14.125C44.8125 16.125 45.8542 18.25 46.8125 20.5C47.0208 22.2083 47.0833 23.9167 47 25.625C46.9167 27.2917 46.6875 29.0625 46.3125 30.9375C45.9792 31.6458 45.5833 32.3125 45.125 32.9375C44.7083 33.5208 44.25 34.1042 43.75 34.6875C43.25 35.2292 42.75 35.7917 42.25 36.375C41.75 36.9167 41.2917 37.5 40.875 38.125L41.9375 40.625C41.8958 40.9583 41.9583 41.3333 42.125 41.75C42.2917 42.125 42.4583 42.5208 42.625 42.9375C42.7917 43.3125 42.9167 43.6875 43 44.0625C43.125 44.4375 43.125 44.75 43 45C43.125 45.25 43.3958 45.3333 43.8125 45.25C43.6458 45.3333 43.5208 45.5 43.4375 45.75C43.3958 46 43.6042 46.0833 44.0625 46C43.9792 46.4583 43.7917 46.9792 43.5 47.5625C43.2083 48.1458 42.8333 48.6875 42.375 49.1875C41.9167 49.7292 41.3542 50.1667 40.6875 50.5C40.0625 50.875 39.3542 51.0625 38.5625 51.0625C37.7292 50.6458 37.0625 50.2292 36.5625 49.8125C36.1042 49.3958 35.5417 48.8958 34.875 48.3125L32.5625 42.875C29.5208 44.25 26.2708 45.375 22.8125 46.25C19.3542 47.0833 15.6875 47.6042 11.8125 47.8125C9.72917 47.2292 7.83333 46.4375 6.125 45.4375C4.41667 44.4375 3.02083 43.1458 1.9375 41.5625ZM18 25.0625C16.1667 26.5625 14.5 28.3125 13 30.3125C11.5417 32.3125 10.3542 34.5 9.4375 36.875C9.8125 37.0833 10.2708 37.2083 10.8125 37.25C11.3542 37.2917 11.8542 37.375 12.3125 37.5C14.6875 36.8333 17.125 36.2083 19.625 35.625C22.1667 35 24.6042 34.2292 26.9375 33.3125C25.9792 32.1458 25.0625 31.0208 24.1875 29.9375C23.3542 28.8542 22.6875 27.7708 22.1875 26.6875C22.3125 26.4375 22.4167 26.1458 22.5 25.8125C22.625 25.4792 22.7708 25.1458 22.9375 24.8125C23.1042 24.4792 23.3333 24.1875 23.625 23.9375C23.9167 23.6875 24.3125 23.5625 24.8125 23.5625C25.5625 23.8542 26.4375 24.0208 27.4375 24.0625C28.4792 24.1042 29.4167 24.2083 30.25 24.375C31.0833 24.9583 31.8125 25.6875 32.4375 26.5625C33.0625 27.3958 33.6875 28.2292 34.3125 29.0625C35.2292 28.2292 36.0208 27.3125 36.6875 26.3125C37.3542 25.2708 37.8542 24.1042 38.1875 22.8125C37.9375 22.1458 37.625 21.3958 37.25 20.5625C36.875 19.7292 36.4375 18.9167 35.9375 18.125C35.4792 17.3333 34.9375 16.625 34.3125 16C33.7292 15.375 33.0833 14.9583 32.375 14.75C32.0417 14.6667 31.8125 14.7292 31.6875 14.9375C31.6042 15.1042 31.3542 15.125 30.9375 15C28.6875 16.625 26.4375 18.2292 24.1875 19.8125C21.9375 21.3542 19.875 23.1042 18 25.0625ZM91.875 45.875C91.4583 46.0833 91.0625 46.2708 90.6875 46.4375C90.3542 46.6042 89.9583 46.6875 89.5 46.6875C87.875 45.4792 87.0208 43.375 86.9375 40.375C86.8958 37.375 87.5417 33.5625 88.875 28.9375C89.0833 28.8125 89.1875 28.5625 89.1875 28.1875L88.625 27.5625C88.4583 27.5625 88.2917 27.5833 88.125 27.625C88 27.6667 87.8958 27.8125 87.8125 28.0625C86.7292 28.8542 85.5417 29.6875 84.25 30.5625C82.9583 31.3958 81.6042 32.1875 80.1875 32.9375C78.8125 33.6458 77.3958 34.2292 75.9375 34.6875C74.5208 35.1458 73.125 35.375 71.75 35.375C68.25 35.375 65.625 33.6042 63.875 30.0625L63.375 29.125L62.875 29.9375C62.75 30.1042 62.5625 30.4583 62.3125 31C62.0625 31.5 61.8125 32.0833 61.5625 32.75C61.3125 33.4167 61.0833 34.1042 60.875 34.8125C60.7083 35.4792 60.6458 36.0625 60.6875 36.5625C60.3125 36.9375 59.9167 37.375 59.5 37.875C59.0833 38.375 58.7708 38.9375 58.5625 39.5625C58.4792 39.8958 58.5208 40.2083 58.6875 40.5C58.6042 40.875 58.4167 41.1667 58.125 41.375C57.9583 41.5833 57.7708 41.7917 57.5625 42C57.3958 42.1667 57.25 42.3542 57.125 42.5625C57.0417 42.7708 56.9792 42.9792 56.9375 43.1875C56.9375 43.3958 56.9167 43.6042 56.875 43.8125C56.875 44.1042 56.8333 44.375 56.75 44.625C56.0417 46.0833 55.4792 47.0208 55.0625 47.4375C54.6458 47.8958 54.0833 48.125 53.375 48.125C53.0417 48.125 52.5 48.0625 51.75 47.9375C51.2083 47.3542 50.7083 46.5625 50.25 45.5625C49.8333 44.5208 49.5 43.4167 49.25 42.25C49.0417 41.0833 48.9375 39.9167 48.9375 38.75C48.9792 37.5417 49.1875 36.5 49.5625 35.625C49.5625 35.5833 49.7292 35.1667 50.0625 34.375C50.3958 33.5833 50.8125 32.5625 51.3125 31.3125C51.8542 30.0625 52.4583 28.6875 53.125 27.1875C53.7917 25.6458 54.4583 24.1667 55.125 22.75C55.7917 21.2917 56.4167 19.9583 57 18.75C57.625 17.5417 58.1458 16.625 58.5625 16C58.8958 15.5 59.1875 15.0417 59.4375 14.625C59.7292 14.1667 60 13.7292 60.25 13.3125C61 12.0208 61.7083 10.9583 62.375 10.125C63.0833 9.25 64.1042 8.5625 65.4375 8.0625C66.3542 8.4375 67.0208 8.875 67.4375 9.375L67.5625 10.0625C67.7292 10.4792 67.9792 10.6875 68.3125 10.6875C68.7708 10.8125 69.1458 10.9375 69.4375 11.0625C69.7708 11.1458 70.125 11.2292 70.5 11.3125C70.7917 11.6458 71.0625 12.0417 71.3125 12.5C71.6458 13 71.9583 13.5 72.25 14C72.5833 14.4583 72.8333 14.9375 73 15.4375C73.2083 15.8958 73.3125 16.375 73.3125 16.875C73.3542 17.375 73.2708 17.8958 73.0625 18.4375L73.125 19.0625C73.3333 19.4375 73.375 19.9583 73.25 20.625C73.2083 20.9167 73.1875 21.2292 73.1875 21.5625C73.1875 21.8542 73.2292 22.1875 73.3125 22.5625C74.0625 23.1458 74.7292 23.4375 75.3125 23.4375C75.9792 23.4375 76.5833 23.2917 77.125 23C77.7083 22.6667 78.25 22.3333 78.75 22C79.0833 21.75 79.4167 21.5417 79.75 21.375C80.0833 21.1667 80.4167 21.0417 80.75 21C81.5 20.2917 82.1667 19.6667 82.75 19.125C83.375 18.5833 84.0208 18.0417 84.6875 17.5C85.9375 16.5 87.1458 15.4167 88.3125 14.25C89.4792 13.0833 90.4167 11.625 91.125 9.875C91.5417 9.625 91.9792 9.5 92.4375 9.5C92.8958 9.5 93.375 9.60417 93.875 9.8125C94.375 10.0208 94.8542 10.2292 95.3125 10.4375C95.4375 10.5208 95.5417 10.5833 95.625 10.625C95.75 10.6667 95.8542 10.7083 95.9375 10.75C95.9375 11.1667 96.1042 11.5208 96.4375 11.8125C96.6042 11.9375 96.7083 12.0208 96.75 12.0625C96.7917 12.1042 96.8542 12.1458 96.9375 12.1875C97.5625 12.5208 97.9583 12.8542 98.125 13.1875C98.4167 14.1458 98.9375 14.875 99.6875 15.375C99.6042 15.7917 99.6042 16.1875 99.6875 16.5625C99.8125 16.8958 99.9583 17.25 100.125 17.625C100.167 17.75 100.208 17.875 100.25 18C100.292 18.125 100.354 18.2708 100.438 18.4375L99.25 18.3125L99.4375 19.5C99.5208 20.0833 99.4583 20.7292 99.25 21.4375C99.0833 22.1458 98.875 22.7083 98.625 23.125C98.6667 24.2083 98.6875 25.0625 98.6875 25.6875C98.7292 26.2708 98.7083 26.8333 98.625 27.375C98.5417 27.875 98.4167 28.3542 98.25 28.8125C98.125 29.2708 97.9375 29.7708 97.6875 30.3125C97.8542 32.9792 97.5417 35.4167 96.75 37.625C96 39.7917 95.2083 41.8333 94.375 43.75C94.2917 43.9583 94.1875 44.1667 94.0625 44.375C93.9792 44.5833 93.8958 44.7917 93.8125 45C93.4375 45.125 93.1042 45.2708 92.8125 45.4375C92.5208 45.5625 92.2083 45.7083 91.875 45.875ZM135.625 11.8125C135.667 12.1042 135.667 12.3333 135.625 12.5C135.625 12.625 135.604 12.75 135.562 12.875C135.562 13 135.562 13.1458 135.562 13.3125C135.562 13.4375 135.604 13.6458 135.688 13.9375C134.812 15.3542 133.792 16.3333 132.625 16.875C131.5 17.375 130.271 17.75 128.938 18C127.604 18.2083 126.229 18.4375 124.812 18.6875C123.438 18.9375 122.062 19.4792 120.688 20.3125C120.146 20.1042 119.646 20.1042 119.188 20.3125C118.771 20.5208 118.146 20.5833 117.312 20.5C117.062 20.75 116.75 20.9375 116.375 21.0625C116 21.1458 115.625 21.25 115.25 21.375C115.417 21.75 115.479 22.1458 115.438 22.5625C115.438 22.9375 115.5 23.25 115.625 23.5C117.083 23.625 118.688 23.6042 120.438 23.4375C122.229 23.2708 123.979 23.1667 125.688 23.125C125.729 23.3333 125.708 23.4792 125.625 23.5625C125.542 23.6042 125.521 23.7083 125.562 23.875C125.854 24.0833 126.146 24.3542 126.438 24.6875C126.729 24.9792 127.021 25.2708 127.312 25.5625C127.604 25.8542 127.896 26.1042 128.188 26.3125C128.521 26.4792 128.896 26.5417 129.312 26.5C129.479 26.8333 129.583 27.2083 129.625 27.625C129.708 28 129.667 28.3958 129.5 28.8125C128.833 29.2708 128.167 29.75 127.5 30.25C126.833 30.7083 126.125 31.125 125.375 31.5C124.667 31.875 123.896 32.1875 123.062 32.4375C122.271 32.6458 121.375 32.7292 120.375 32.6875C120.167 32.6875 120 32.6875 119.875 32.6875C119.792 32.6875 119.667 32.625 119.5 32.5C119.167 32.7083 118.688 32.7708 118.062 32.6875C117.479 32.6042 117.021 32.6667 116.688 32.875C116.229 32.6667 115.667 32.5833 115 32.625C114.375 32.625 113.812 32.5417 113.312 32.375C112.646 33.25 112.042 34.1875 111.5 35.1875C110.958 36.1875 110.479 37.25 110.062 38.375C111.479 38.5833 112.646 38.6667 113.562 38.625C114.521 38.5833 115.417 38.5208 116.25 38.4375C117.083 38.3125 117.938 38.2083 118.812 38.125C119.688 38 120.792 37.9583 122.125 38C122.958 37.5417 123.938 37.25 125.062 37.125C126.229 36.9583 127.292 36.7083 128.25 36.375C128.583 36.5 128.875 36.7292 129.125 37.0625C129.375 37.3542 129.604 37.6458 129.812 37.9375C130.062 38.1875 130.312 38.4167 130.562 38.625C130.812 38.8333 131.125 38.9167 131.5 38.875C131.667 39.0417 131.771 39.25 131.812 39.5C131.896 39.7083 131.958 39.9167 132 40.125C132.042 40.3333 132.104 40.5208 132.188 40.6875C132.312 40.8125 132.5 40.8542 132.75 40.8125C132.125 42.1875 131.396 43.25 130.562 44C129.771 44.7083 128.854 45.25 127.812 45.625C126.771 46 125.604 46.2917 124.312 46.5C123.062 46.7083 121.667 46.9583 120.125 47.25C119.75 47.3333 119.438 47.3125 119.188 47.1875C118.938 47.1042 118.646 47.0625 118.312 47.0625C117.354 47.2708 116.208 47.4583 114.875 47.625C113.542 47.7917 112.188 47.8542 110.812 47.8125C109.438 47.7708 108.125 47.5833 106.875 47.25C105.625 46.9583 104.604 46.4167 103.812 45.625C103.479 45.3333 103.25 45 103.125 44.625C103.042 44.2083 102.771 43.8958 102.312 43.6875C102.271 43.1458 102.188 42.5417 102.062 41.875C101.938 41.2083 101.812 40.5208 101.688 39.8125C101.562 39.0625 101.458 38.3333 101.375 37.625C101.333 36.9167 101.375 36.2708 101.5 35.6875C101.625 35.0625 101.875 34.5 102.25 34C102.667 33.5 102.812 32.9583 102.688 32.375C102.896 32.3333 103.021 32.2292 103.062 32.0625C103.104 31.8542 103.271 31.7708 103.562 31.8125C103.812 31.0625 104.083 30.3542 104.375 29.6875C104.667 29.0208 104.958 28.375 105.25 27.75C105.583 27.125 105.896 26.5 106.188 25.875C106.521 25.2083 106.833 24.4792 107.125 23.6875C106.542 23.1458 106.104 22.5625 105.812 21.9375C105.562 21.2708 105.375 20.625 105.25 20C105.125 19.3333 105.021 18.6667 104.938 18C104.854 17.2917 104.708 16.5833 104.5 15.875C104.917 15.25 105.417 14.75 106 14.375C106.625 13.9583 107.292 13.625 108 13.375C108.708 13.125 109.479 12.9167 110.312 12.75C111.146 12.5833 112.021 12.3958 112.938 12.1875C114.604 11.6458 116.083 11.2292 117.375 10.9375C118.708 10.6458 120 10.4167 121.25 10.25C122.542 10.0417 123.875 9.85417 125.25 9.6875C126.625 9.52083 128.188 9.27083 129.938 8.9375C130.312 9.3125 130.667 9.5 131 9.5C131.167 9.125 131.354 9.02083 131.562 9.1875C131.812 9.3125 131.917 9.1875 131.875 8.8125C132.292 9.52083 132.812 10.125 133.438 10.625C134.104 11.0833 134.833 11.4792 135.625 11.8125ZM150.625 46.3125C149.458 46.6875 148.188 47.0625 146.812 47.4375C145.438 47.8125 144.062 48 142.688 48C140.604 48 138.958 47.4792 137.75 46.4375C137.542 45.9792 137.354 45.6667 137.188 45.5C137.062 45.3333 136.938 45.1667 136.812 45C136.729 44.7917 136.667 44.5208 136.625 44.1875C136.125 43.6042 135.729 42.9375 135.438 42.1875C135.146 41.3958 134.938 40.6042 134.812 39.8125C134.729 38.9792 134.708 38.1458 134.75 37.3125C134.833 36.4792 134.979 35.6875 135.188 34.9375C135.271 34.7708 135.312 34.6042 135.312 34.4375C135.354 34.2708 135.396 34.0833 135.438 33.875C135.604 33.2083 135.771 32.5625 135.938 31.9375C136.146 31.3125 136.417 30.7708 136.75 30.3125C136.583 29.9375 136.583 29.5208 136.75 29.0625C136.917 28.6042 137.104 28.1875 137.312 27.8125C137.896 26.2292 138.375 24.8958 138.75 23.8125C139.167 22.6875 139.583 21.5833 140 20.5C140.708 18.625 141.375 16.7708 142 14.9375C142.625 13.1042 143.188 11.125 143.688 9C144.021 8.79167 144.271 8.64583 144.438 8.5625C144.688 8.47917 144.896 8.41667 145.062 8.375C145.812 8.75 146.688 9.125 147.688 9.5C148.688 9.83333 149.521 10 150.188 10C150.521 10.2083 150.729 10.375 150.812 10.5C150.896 10.5833 150.979 10.6667 151.062 10.75C151.521 11.2917 151.917 11.8542 152.25 12.4375C152.583 12.9792 152.688 13.7083 152.562 14.625C152.312 15 152.125 15.1875 152 15.1875C151.792 16.0208 151.562 16.7292 151.312 17.3125C151.104 17.8958 150.875 18.4792 150.625 19.0625C150.333 19.6875 150.062 20.3125 149.812 20.9375C149.562 21.5625 149.354 22.3333 149.188 23.25C149.021 23.4583 148.896 23.6458 148.812 23.8125C148.771 23.9792 148.708 24.1667 148.625 24.375C148.542 24.5833 148.438 24.8125 148.312 25.0625C148.229 25.2708 148.083 25.4583 147.875 25.625C147.75 26.7083 147.542 27.5833 147.25 28.25C147 28.9167 146.729 29.5833 146.438 30.25C145.938 31.4583 145.479 32.6667 145.062 33.875C144.688 35.0833 144.458 36.4583 144.375 38C144.583 37.9167 144.771 37.875 144.938 37.875C145.146 37.875 145.333 37.875 145.5 37.875C145.875 37.875 146.312 37.9375 146.812 38.0625C148.062 37.3958 149.417 37 150.875 36.875C152.375 36.75 153.854 36.6667 155.312 36.625C155.896 36.625 156.479 36.625 157.062 36.625C157.646 36.625 158.188 36.5833 158.688 36.5C159.062 36.7083 159.292 36.8333 159.375 36.875C159.5 36.875 159.667 36.875 159.875 36.875C160.167 36.875 160.417 36.8958 160.625 36.9375C161.125 37.3958 161.604 37.7292 162.062 37.9375C162.521 38.1458 163 38.3333 163.5 38.5C163.958 38.6667 164.396 38.8542 164.812 39.0625C165.271 39.2292 165.708 39.4792 166.125 39.8125L166.562 42.5C166.854 42.875 166.979 43.125 166.938 43.25C166.938 43.5833 166.854 43.8333 166.688 44L166.812 44.6875C166.188 44.8125 165.75 44.9583 165.5 45.125C165.292 45.2917 165.083 45.4792 164.875 45.6875C164.542 45.7292 164.292 45.75 164.125 45.75C164 45.75 163.875 45.75 163.75 45.75C163.167 45.75 162.458 45.8542 161.625 46.0625C160.5 45.6875 159.333 45.5 158.125 45.5C157.667 45.5 157.188 45.5208 156.688 45.5625C156.188 45.6042 155.688 45.6458 155.188 45.6875C154.688 45.7708 154.167 45.8333 153.625 45.875C153.125 45.9167 152.604 45.9375 152.062 45.9375L150.625 46.3125ZM204.688 28.25C204.646 28.75 204.688 29.2292 204.812 29.6875C204.938 30.1458 205.083 30.6042 205.25 31.0625C205.458 31.4792 205.646 31.9167 205.812 32.375C205.979 32.8333 206.104 33.2917 206.188 33.75C206.271 34.3333 206.271 34.9792 206.188 35.6875C206.104 36.3542 205.958 37.0208 205.75 37.6875C205.542 38.3125 205.271 38.8958 204.938 39.4375C204.604 39.9375 204.208 40.3125 203.75 40.5625C203.167 41.3125 202.458 41.8958 201.625 42.3125C200.792 42.7292 200.021 43.2292 199.312 43.8125C198.854 44.1042 198.333 44.3125 197.75 44.4375C197.208 44.5625 196.646 44.6875 196.062 44.8125C195.604 45.0625 195.062 45.3333 194.438 45.625C193.812 45.875 193.167 46.125 192.5 46.375C191.833 46.5833 191.167 46.75 190.5 46.875C189.833 46.9583 189.25 46.9792 188.75 46.9375C187.5 47.3958 186.271 47.6875 185.062 47.8125C183.896 47.9792 182.521 47.8958 180.938 47.5625C179.438 47.7708 178.042 47.7083 176.75 47.375C175.5 47.0417 174.375 46.5208 173.375 45.8125C172.417 45.0625 171.562 44.1875 170.812 43.1875C170.104 42.1458 169.521 41.0625 169.062 39.9375C168.729 37.5625 168.812 35.4167 169.312 33.5C169.812 31.5417 170.521 29.75 171.438 28.125C172.396 26.4583 173.479 24.9375 174.688 23.5625C175.896 22.1458 177.062 20.7708 178.188 19.4375C178.438 19.5208 178.625 19.5208 178.75 19.4375C178.917 19.3125 179.062 19.1667 179.188 19C179.312 18.7917 179.438 18.6042 179.562 18.4375C179.729 18.2708 179.917 18.1667 180.125 18.125C180.417 17.5 180.833 17.0417 181.375 16.75C181.958 16.4167 182.417 15.9583 182.75 15.375C183.125 15.2917 183.438 15.1667 183.688 15C183.938 14.8333 184.167 14.6458 184.375 14.4375C184.625 14.2292 184.875 14.0417 185.125 13.875C185.375 13.6667 185.667 13.5208 186 13.4375V12.75C186.75 12.4167 187.292 12.0417 187.625 11.625C188 11.1667 188.438 10.625 188.938 10C189.312 9.95833 189.604 9.9375 189.812 9.9375C190.062 9.9375 190.417 9.89583 190.875 9.8125C191.208 9.22917 191.5 8.79167 191.75 8.5C192.042 8.20833 192.458 7.89583 193 7.5625C193.5 7.8125 194.042 7.97917 194.625 8.0625C195.25 8.14583 195.792 8.41667 196.25 8.875C196.292 9.29167 196.417 9.625 196.625 9.875C196.833 10.0833 197.062 10.2917 197.312 10.5C197.562 10.6667 197.792 10.8542 198 11.0625C198.25 11.2708 198.417 11.5625 198.5 11.9375C198.667 11.9792 198.771 11.9583 198.812 11.875C198.896 11.7917 199.021 11.7708 199.188 11.8125C199.312 12.3958 199.458 12.7917 199.625 13C199.792 13.1667 199.958 13.5208 200.125 14.0625C199.917 14.4792 199.75 14.9167 199.625 15.375C199.542 15.7917 199.292 16.1042 198.875 16.3125C198.833 16.6042 198.917 16.7708 199.125 16.8125C199.333 16.8125 199.458 16.9167 199.5 17.125C199.542 17.5 199.479 17.7708 199.312 17.9375C200.312 19.5625 201.208 21.2917 202 23.125C202.792 24.9167 203.688 26.625 204.688 28.25ZM196.875 34.1875C197.042 33.7292 197.25 33.3542 197.5 33.0625C197.792 32.7708 197.958 32.3333 198 31.75C197.792 31.4167 197.667 31.1667 197.625 31C197.583 30.7917 197.562 30.4792 197.562 30.0625C196.646 28.7708 195.854 27.3958 195.188 25.9375C194.521 24.4375 193.771 23.0417 192.938 21.75C192.854 21.9167 192.708 22.0833 192.5 22.25C192.292 22.4167 192.062 22.375 191.812 22.125C191.729 22.4583 191.583 22.7083 191.375 22.875C191.167 23 190.938 23.0625 190.688 23.0625C190.438 23.0208 190.167 22.9583 189.875 22.875C189.625 22.75 189.396 22.6042 189.188 22.4375C187.979 23.3958 186.771 24.3333 185.562 25.25C184.354 26.1667 183.271 27.2292 182.312 28.4375C182.146 28.5208 182.042 28.5625 182 28.5625C181.958 28.5208 181.833 28.5417 181.625 28.625C181.292 29.4167 180.875 30.1458 180.375 30.8125C179.917 31.4375 179.458 32.0833 179 32.75C178.542 33.4167 178.146 34.125 177.812 34.875C177.479 35.625 177.292 36.5 177.25 37.5C177.958 38.0833 178.792 38.4375 179.75 38.5625C180.708 38.6875 181.688 38.7083 182.688 38.625C183.729 38.5417 184.729 38.4167 185.688 38.25C186.688 38.0417 187.604 37.9375 188.438 37.9375C190.188 37.5208 191.688 36.9792 192.938 36.3125C194.188 35.6042 195.5 34.8958 196.875 34.1875ZM2.375 104.75C2.33333 104.417 2.25 104.125 2.125 103.875C2.04167 103.583 1.9375 103.271 1.8125 102.938C1.60417 102.438 1.41667 101.896 1.25 101.312C1.08333 100.729 1 100.042 1 99.25C1.08333 98.8333 1.1875 98.5417 1.3125 98.375C1.4375 98.1667 1.5625 98 1.6875 97.875L1.9375 96.75H2.875C3.20833 96.7917 3.54167 96.8125 3.875 96.8125C4.25 96.8125 4.60417 96.8125 4.9375 96.8125C6.52083 96.8125 8.14583 96.75 9.8125 96.625C11.4792 96.5 13.1875 96.3542 14.9375 96.1875C16.8542 95.9375 18.9167 95.75 21.125 95.625C21.3333 95.1667 21.4583 94.875 21.5 94.75C21.5833 94.625 21.6667 94.4792 21.75 94.3125L22.4375 93.9375C23.3958 93.8958 24.0625 94.0208 24.4375 94.3125C24.8125 94.5625 25.1042 94.8125 25.3125 95.0625C26.3958 94.9792 27.5 94.875 28.625 94.75C29.75 94.5833 30.9167 94.4167 32.125 94.25C33.7917 94.0417 35.4792 93.8333 37.1875 93.625C38.8958 93.4167 40.5625 93.3125 42.1875 93.3125C42.8958 93.3125 43.5625 93.3333 44.1875 93.375C44.8125 93.4167 45.4167 93.4792 46 93.5625L46.75 94.125C46.9167 94.4167 47.125 94.6875 47.375 94.9375C47.625 95.1875 47.9167 95.4375 48.25 95.6875C48.875 96.1875 49.4792 96.8125 50.0625 97.5625C50.6875 98.3125 50.9167 99.4167 50.75 100.875L50.4375 101.5C50.2708 101.667 50.0625 101.833 49.8125 102L49.1875 102.812H48.5C48.0833 102.812 47.7708 102.854 47.5625 102.938C47.3542 102.979 47.1042 103.062 46.8125 103.188C46.6458 103.271 46.4583 103.354 46.25 103.438C46.0417 103.479 45.8125 103.542 45.5625 103.625C45.1042 103.583 44.75 103.562 44.5 103.562C44.25 103.562 43.9583 103.562 43.625 103.562C42.375 103.562 41.0208 103.646 39.5625 103.812C38.1042 103.979 36.6875 104.167 35.3125 104.375C34.3125 104.5 33.3542 104.625 32.4375 104.75C31.5208 104.833 30.6875 104.917 29.9375 105C29.5208 106.083 29.1458 107.042 28.8125 107.875C28.4792 108.708 28.125 109.542 27.75 110.375C27.375 111.208 27.0208 112.062 26.6875 112.938C26.3542 113.771 26.0417 114.708 25.75 115.75C25.25 116.5 24.8333 117.229 24.5 117.938C24.1667 118.604 23.8958 119.375 23.6875 120.25C23.0625 120.958 22.6042 121.729 22.3125 122.562C22.0625 123.396 21.8333 124.104 21.625 124.688L21.375 125.625C21.0833 125.917 20.8958 126.146 20.8125 126.312C20.7708 126.479 20.6667 126.667 20.5 126.875C20.375 127.417 20.2083 127.938 20 128.438C19.9167 128.646 19.8333 128.875 19.75 129.125C19.6667 129.333 19.6458 129.5 19.6875 129.625C19.6042 130.083 19.4792 130.438 19.3125 130.688C19.3125 130.938 19.2917 131.188 19.25 131.438C19.2083 131.688 19.1667 131.938 19.125 132.188C19.0417 132.479 18.9792 132.75 18.9375 133C18.8958 133.208 18.9167 133.417 19 133.625C19.125 133.792 19.25 133.958 19.375 134.125C19.5 134.292 19.6042 134.5 19.6875 134.75C19.7708 134.833 19.875 134.896 20 134.938C20.125 134.979 20.2292 135.042 20.3125 135.125C20.6458 135.417 20.9583 135.583 21.25 135.625L21.875 136.375C22.125 137.875 21.8958 139.042 21.1875 139.875C20.4375 140.833 19.1875 141.312 17.4375 141.312L16.5625 141.25C16.2708 140.958 16.1042 140.771 16.0625 140.688C15.6875 140.521 15.375 140.375 15.125 140.25C14.875 140.167 14.6458 139.979 14.4375 139.688C14.3542 139.604 14.25 139.562 14.125 139.562C14 139.521 13.8958 139.458 13.8125 139.375C13.3958 139.25 13.0625 139.104 12.8125 138.938L12.125 138.562C12.1667 138.146 12.1875 137.854 12.1875 137.688C11.8542 137.229 11.5833 136.729 11.375 136.188C11.2083 135.646 11.0625 135.083 10.9375 134.5C10.8125 134.042 10.6875 133.625 10.5625 133.25C10.4792 132.875 10.3333 132.542 10.125 132.25C10.0417 129.333 10.3125 126.896 10.9375 124.938C11.5625 122.938 12.25 121 13 119.125C13.4167 118.125 13.8125 117.104 14.1875 116.062C14.5625 115.021 14.8958 113.958 15.1875 112.875L15.875 112.188C16.1667 111.938 16.3542 111.792 16.4375 111.75C16.4375 111.208 16.5417 110.688 16.75 110.188C16.9583 109.646 17.1875 109.104 17.4375 108.562C17.6042 108.229 17.75 107.896 17.875 107.562C18.0417 107.229 18.1458 106.938 18.1875 106.688C17.8958 106.688 17.625 106.708 17.375 106.75C17.1667 106.75 16.9375 106.771 16.6875 106.812C16.1458 106.938 15.625 107 15.125 107C14.75 107 14.4792 106.979 14.3125 106.938C13.9792 107.104 13.6667 107.208 13.375 107.25C13.0833 107.25 12.7917 107.25 12.5 107.25H11.75H11C10.5 107.25 10.1042 107.312 9.8125 107.438C9.22917 107.438 8.85417 107.438 8.6875 107.438C8.52083 107.438 8.33333 107.438 8.125 107.438H7.375H6.625C6.29167 107.438 5.91667 107.417 5.5 107.375C5.08333 107.292 4.64583 107.125 4.1875 106.875L3.75 106.375C3.5 105.917 3.27083 105.667 3.0625 105.625L2.375 105.438V104.75ZM49.9375 133.5C49.4792 135.167 49.0625 136.438 48.6875 137.312C48.3542 138.146 47.8333 139.021 47.125 139.938C46.5833 139.854 46.2083 139.917 46 140.125C45.7917 140.333 45.5625 140.521 45.3125 140.688C44.9375 140.771 44.6667 140.771 44.5 140.688C44.3333 140.604 44.1875 140.5 44.0625 140.375C43.9375 140.292 43.7708 140.188 43.5625 140.062C43.3958 139.979 43.125 139.938 42.75 139.938C42.6667 139.604 42.5625 139.292 42.4375 139C42.3542 138.708 42.0833 138.604 41.625 138.688C41.7083 138.354 41.7292 138.083 41.6875 137.875C41.6458 137.625 41.5833 137.417 41.5 137.25C41.4583 137.042 41.4167 136.854 41.375 136.688C41.3333 136.479 41.3542 136.229 41.4375 135.938C41.2292 135.938 41.0625 135.792 40.9375 135.5C40.8125 135.208 40.6667 134.917 40.5 134.625C40.625 133.875 40.75 133.167 40.875 132.5C41 131.833 41.1458 131.208 41.3125 130.625C41.5208 130.042 41.6875 129.458 41.8125 128.875C41.9375 128.292 41.875 127.688 41.625 127.062C41.7917 127.188 41.9167 127.167 42 127C42.0833 126.792 42.1458 126.542 42.1875 126.25C42.2292 125.917 42.25 125.604 42.25 125.312C42.25 124.979 42.2292 124.708 42.1875 124.5C42.6042 123.417 42.9375 122.312 43.1875 121.188C43.4792 120.021 43.7292 118.875 43.9375 117.75C44.1875 116.625 44.4375 115.521 44.6875 114.438C44.9375 113.354 45.2708 112.354 45.6875 111.438C46.1458 111.354 46.6458 111.417 47.1875 111.625C47.7708 111.792 48.125 112.021 48.25 112.312C49.3333 111.479 50.2917 110.479 51.125 109.312C51.9583 108.104 52.8125 106.938 53.6875 105.812C54.5625 104.688 55.5208 103.688 56.5625 102.812C57.6458 101.938 59 101.417 60.625 101.25C61.4583 101.875 62.375 102.521 63.375 103.188C64.4167 103.812 65.2708 104.646 65.9375 105.688C66.2708 105.854 66.5417 106.042 66.75 106.25C67 106.417 67.2917 106.604 67.625 106.812V107.562C68.125 108.021 68.5208 108.562 68.8125 109.188C69.1458 109.771 69.4375 110.417 69.6875 111.125C69.9375 111.792 70.1875 112.479 70.4375 113.188C70.6875 113.854 70.9792 114.5 71.3125 115.125C71.2292 115.333 71.1875 115.521 71.1875 115.688C71.1875 115.812 71.2083 115.958 71.25 116.125C71.3333 116.292 71.3958 116.458 71.4375 116.625C71.4792 116.792 71.4792 117.021 71.4375 117.312C71.3125 119.146 70.7083 120.625 69.625 121.75C68.5833 122.875 67.3125 123.812 65.8125 124.562C64.3125 125.271 62.7083 125.875 61 126.375C59.2917 126.875 57.75 127.417 56.375 128C56.375 128.167 56.4375 128.25 56.5625 128.25C56.7292 128.25 56.7917 128.354 56.75 128.562C57.75 129.188 58.5417 129.688 59.125 130.062C59.7083 130.438 60.25 130.75 60.75 131C61.2917 131.25 61.8542 131.479 62.4375 131.688C63.0625 131.854 63.9167 132.062 65 132.312C66.0833 132.562 66.9167 132.771 67.5 132.938C68.125 133.062 68.6875 133.188 69.1875 133.312C69.6875 133.396 70.1875 133.479 70.6875 133.562C71.2292 133.604 71.9792 133.667 72.9375 133.75C73.3125 134.125 73.625 134.583 73.875 135.125C74.1667 135.625 74.3542 136.146 74.4375 136.688C74.5208 137.188 74.5417 137.688 74.5 138.188C74.4583 138.646 74.3125 139.021 74.0625 139.312C74.1042 139.438 74.1875 139.5 74.3125 139.5C74.4792 139.458 74.6458 139.458 74.8125 139.5C74.5625 139.667 74.3542 139.875 74.1875 140.125C74.0208 140.375 73.8542 140.625 73.6875 140.875C73.5208 141.125 73.3333 141.333 73.125 141.5C72.9167 141.708 72.625 141.833 72.25 141.875C70.9583 142.375 69.3333 142.396 67.375 141.938C65.4167 141.521 62.9375 140.729 59.9375 139.562C58.4375 138.979 57.2083 138.479 56.25 138.062C55.3333 137.604 54.5208 137.167 53.8125 136.75C53.1458 136.292 52.5208 135.812 51.9375 135.312C51.3958 134.812 50.7292 134.208 49.9375 133.5ZM58.875 112.062C58.4167 112.729 57.8958 113.333 57.3125 113.875C56.7708 114.417 56.2292 114.979 55.6875 115.562C55.1875 116.104 54.7292 116.729 54.3125 117.438C53.8958 118.104 53.6042 118.896 53.4375 119.812C54.8958 119.646 56.4167 119.25 58 118.625C59.5833 117.958 61.0833 117.333 62.5 116.75C62.3333 115.458 61.875 114.417 61.125 113.625C60.4167 112.833 59.6667 112.312 58.875 112.062ZM109.375 104.812C109.417 105.104 109.417 105.333 109.375 105.5C109.375 105.625 109.354 105.75 109.312 105.875C109.312 106 109.312 106.146 109.312 106.312C109.312 106.438 109.354 106.646 109.438 106.938C108.562 108.354 107.542 109.333 106.375 109.875C105.25 110.375 104.021 110.75 102.688 111C101.354 111.208 99.9792 111.438 98.5625 111.688C97.1875 111.938 95.8125 112.479 94.4375 113.312C93.8958 113.104 93.3958 113.104 92.9375 113.312C92.5208 113.521 91.8958 113.583 91.0625 113.5C90.8125 113.75 90.5 113.938 90.125 114.062C89.75 114.146 89.375 114.25 89 114.375C89.1667 114.75 89.2292 115.146 89.1875 115.562C89.1875 115.938 89.25 116.25 89.375 116.5C90.8333 116.625 92.4375 116.604 94.1875 116.438C95.9792 116.271 97.7292 116.167 99.4375 116.125C99.4792 116.333 99.4583 116.479 99.375 116.562C99.2917 116.604 99.2708 116.708 99.3125 116.875C99.6042 117.083 99.8958 117.354 100.188 117.688C100.479 117.979 100.771 118.271 101.062 118.562C101.354 118.854 101.646 119.104 101.938 119.312C102.271 119.479 102.646 119.542 103.062 119.5C103.229 119.833 103.333 120.208 103.375 120.625C103.458 121 103.417 121.396 103.25 121.812C102.583 122.271 101.917 122.75 101.25 123.25C100.583 123.708 99.875 124.125 99.125 124.5C98.4167 124.875 97.6458 125.188 96.8125 125.438C96.0208 125.646 95.125 125.729 94.125 125.688C93.9167 125.688 93.75 125.688 93.625 125.688C93.5417 125.688 93.4167 125.625 93.25 125.5C92.9167 125.708 92.4375 125.771 91.8125 125.688C91.2292 125.604 90.7708 125.667 90.4375 125.875C89.9792 125.667 89.4167 125.583 88.75 125.625C88.125 125.625 87.5625 125.542 87.0625 125.375C86.3958 126.25 85.7917 127.188 85.25 128.188C84.7083 129.188 84.2292 130.25 83.8125 131.375C85.2292 131.583 86.3958 131.667 87.3125 131.625C88.2708 131.583 89.1667 131.521 90 131.438C90.8333 131.312 91.6875 131.208 92.5625 131.125C93.4375 131 94.5417 130.958 95.875 131C96.7083 130.542 97.6875 130.25 98.8125 130.125C99.9792 129.958 101.042 129.708 102 129.375C102.333 129.5 102.625 129.729 102.875 130.062C103.125 130.354 103.354 130.646 103.562 130.938C103.812 131.188 104.062 131.417 104.312 131.625C104.562 131.833 104.875 131.917 105.25 131.875C105.417 132.042 105.521 132.25 105.562 132.5C105.646 132.708 105.708 132.917 105.75 133.125C105.792 133.333 105.854 133.521 105.938 133.688C106.062 133.812 106.25 133.854 106.5 133.812C105.875 135.188 105.146 136.25 104.312 137C103.521 137.708 102.604 138.25 101.562 138.625C100.521 139 99.3542 139.292 98.0625 139.5C96.8125 139.708 95.4167 139.958 93.875 140.25C93.5 140.333 93.1875 140.312 92.9375 140.188C92.6875 140.104 92.3958 140.062 92.0625 140.062C91.1042 140.271 89.9583 140.458 88.625 140.625C87.2917 140.792 85.9375 140.854 84.5625 140.812C83.1875 140.771 81.875 140.583 80.625 140.25C79.375 139.958 78.3542 139.417 77.5625 138.625C77.2292 138.333 77 138 76.875 137.625C76.7917 137.208 76.5208 136.896 76.0625 136.688C76.0208 136.146 75.9375 135.542 75.8125 134.875C75.6875 134.208 75.5625 133.521 75.4375 132.812C75.3125 132.062 75.2083 131.333 75.125 130.625C75.0833 129.917 75.125 129.271 75.25 128.688C75.375 128.062 75.625 127.5 76 127C76.4167 126.5 76.5625 125.958 76.4375 125.375C76.6458 125.333 76.7708 125.229 76.8125 125.062C76.8542 124.854 77.0208 124.771 77.3125 124.812C77.5625 124.062 77.8333 123.354 78.125 122.688C78.4167 122.021 78.7083 121.375 79 120.75C79.3333 120.125 79.6458 119.5 79.9375 118.875C80.2708 118.208 80.5833 117.479 80.875 116.688C80.2917 116.146 79.8542 115.562 79.5625 114.938C79.3125 114.271 79.125 113.625 79 113C78.875 112.333 78.7708 111.667 78.6875 111C78.6042 110.292 78.4583 109.583 78.25 108.875C78.6667 108.25 79.1667 107.75 79.75 107.375C80.375 106.958 81.0417 106.625 81.75 106.375C82.4583 106.125 83.2292 105.917 84.0625 105.75C84.8958 105.583 85.7708 105.396 86.6875 105.188C88.3542 104.646 89.8333 104.229 91.125 103.938C92.4583 103.646 93.75 103.417 95 103.25C96.2917 103.042 97.625 102.854 99 102.688C100.375 102.521 101.938 102.271 103.688 101.938C104.062 102.312 104.417 102.5 104.75 102.5C104.917 102.125 105.104 102.021 105.312 102.188C105.562 102.312 105.667 102.188 105.625 101.812C106.042 102.521 106.562 103.125 107.188 103.625C107.854 104.083 108.583 104.479 109.375 104.812ZM140.938 134.75C140.688 135.458 140.312 136.188 139.812 136.938C139.354 137.646 138.792 138.292 138.125 138.875C137.5 139.417 136.792 139.875 136 140.25C135.208 140.625 134.375 140.833 133.5 140.875C132.958 140.75 132.583 140.604 132.375 140.438C132.208 140.312 132.021 140.188 131.812 140.062C131.688 139.979 131.562 139.917 131.438 139.875C131.354 139.792 131.271 139.729 131.188 139.688L130.438 139.375L130.688 138.562C130.771 138.229 130.75 137.979 130.625 137.812C130.5 137.604 130.25 137.333 129.875 137C129.75 136.875 129.625 136.75 129.5 136.625C129.375 136.5 129.271 136.375 129.188 136.25L128.125 135.062L129.812 134.625C130.854 134.333 131.542 133.958 131.875 133.5C132.25 133.042 132.396 132.271 132.312 131.188C131.479 131.021 130.771 131 130.188 131.125C129.646 131.25 129.083 131.396 128.5 131.562C127.75 131.771 126.979 131.958 126.188 132.125C125.438 132.25 124.604 132.312 123.688 132.312C123.354 132.312 123.042 132.312 122.75 132.312C122.458 132.271 122.146 132.229 121.812 132.188L121.188 132.062C121.104 131.604 121.021 131.354 120.938 131.312C120.854 131.229 120.771 131.146 120.688 131.062C120.479 130.854 120.25 130.583 120 130.25C119.792 129.875 119.75 129.417 119.875 128.875C119.667 128.5 119.542 128.125 119.5 127.75C119.25 128.25 119.062 128.771 118.938 129.312L118.688 129.938L118.062 130.062C117.979 130.104 117.917 130.208 117.875 130.375C117.833 130.5 117.812 130.604 117.812 130.688L117.5 131.75C117.417 131.833 117.333 131.917 117.25 132C117.167 132.042 117.083 132.104 117 132.188C116.917 132.562 116.812 132.938 116.688 133.312C116.562 133.688 116.438 134.042 116.312 134.375C116.104 134.917 115.917 135.458 115.75 136C115.625 136.5 115.583 137 115.625 137.5L115.375 138.188C115.167 138.438 114.938 138.646 114.688 138.812C114.438 138.938 114.188 139.062 113.938 139.188C113.854 139.271 113.729 139.354 113.562 139.438C113.438 139.479 113.333 139.521 113.25 139.562L113.062 140.25L112.312 140.375C111.854 140.458 111.521 140.521 111.312 140.562C111.146 140.604 110.938 140.625 110.688 140.625L110.062 140.562C109.604 140.188 109.25 139.896 109 139.688C108.75 139.438 108.458 139.208 108.125 139C107.75 138.5 107.542 138.125 107.5 137.875C107.458 137.625 107.417 137.396 107.375 137.188C107.292 136.938 107.25 136.729 107.25 136.562C107.208 136.396 107.146 136.271 107.062 136.188L106.25 135.438L106.938 134.875L107 133.812C107.833 131.688 108.708 129.646 109.625 127.688C110.583 125.729 111.562 123.729 112.562 121.688C112.896 121.021 113.208 120.354 113.5 119.688C113.833 119.021 114.167 118.354 114.5 117.688C114.458 117.562 114.438 117.417 114.438 117.25C114.438 117.083 114.479 116.896 114.562 116.688C115.021 115.979 115.396 115.354 115.688 114.812C115.979 114.229 116.271 113.646 116.562 113.062C116.896 112.354 117.229 111.667 117.562 111C117.938 110.333 118.396 109.646 118.938 108.938L119.938 108.5C120.062 108.458 120.208 108.417 120.375 108.375C120.542 108.292 120.729 108.25 120.938 108.25L121.875 108.375C123.042 107.833 124.062 107.083 124.938 106.125C125.812 105.125 126.708 103.938 127.625 102.562L128.25 101.688L129.062 102.188C129.271 102.312 129.562 102.438 129.938 102.562C130.312 102.646 130.708 102.75 131.125 102.875C131.875 103.042 132.583 103.229 133.25 103.438C133.917 103.646 134.458 103.958 134.875 104.375C135.125 105.042 135.271 105.542 135.312 105.875C135.354 106.208 135.417 106.542 135.5 106.875C135.625 107.583 135.729 108.292 135.812 109C135.938 109.708 136.021 110.5 136.062 111.375C136.271 112.083 136.438 112.792 136.562 113.5C136.729 114.167 136.875 114.854 137 115.562C137.208 116.562 137.417 117.542 137.625 118.5C137.833 119.417 138.104 120.292 138.438 121.125C138.771 121.125 138.979 121.146 139.062 121.188C139.271 121.104 139.479 121.042 139.688 121C139.938 120.958 140.208 120.917 140.5 120.875L141.188 120.812L141.438 121.438C141.479 121.646 141.688 121.854 142.062 122.062C142.604 122.104 143 122.229 143.25 122.438C143.5 122.604 143.729 122.792 143.938 123C144.104 123.167 144.271 123.292 144.438 123.375L145.375 123.75L144.875 124.688C144.458 125.438 143.854 126.167 143.062 126.875C142.312 127.542 141.458 128.104 140.5 128.562C140.542 128.812 140.562 129.062 140.562 129.312C140.604 129.521 140.667 129.75 140.75 130C140.875 130.708 140.979 131.438 141.062 132.188C141.146 132.938 141.146 133.708 141.062 134.5L140.938 134.75ZM122.875 123.938C124.125 123.854 125.25 123.771 126.25 123.688C127.292 123.562 128.438 123.375 129.688 123.125C129.396 121.875 129.083 120.583 128.75 119.25C128.417 117.875 128.062 116.521 127.688 115.188L127.312 115.812C126.479 116.688 125.667 117.667 124.875 118.75C124.125 119.833 123.479 120.854 122.938 121.812C122.688 122.188 122.438 122.562 122.188 122.938C121.938 123.312 121.708 123.688 121.5 124.062C121.75 124.021 121.979 124 122.188 124C122.438 124 122.667 123.979 122.875 123.938ZM144.812 111.875C145.104 111 145.562 110.25 146.188 109.625C146.854 109 147.562 108.479 148.312 108.062C149.104 107.604 149.917 107.229 150.75 106.938C151.583 106.646 152.375 106.396 153.125 106.188C154.792 105.479 156.562 104.812 158.438 104.188C160.354 103.521 162.292 102.938 164.25 102.438C166.25 101.938 168.292 101.625 170.375 101.5C172.458 101.333 174.646 101.583 176.938 102.25C177.062 102.667 177.25 103.062 177.5 103.438C177.75 103.812 178 104.188 178.25 104.562C178.542 104.938 178.792 105.312 179 105.688C179.208 106.021 179.333 106.375 179.375 106.75C179.792 107.125 180.125 107.542 180.375 108C180.625 108.417 180.667 108.979 180.5 109.688C180.083 110.021 179.667 110.333 179.25 110.625C178.875 110.875 178.458 111.104 178 111.312C176.458 110.938 174.896 110.812 173.312 110.938C171.729 111.062 170.312 111.167 169.062 111.25C168.688 110.875 168.229 110.688 167.688 110.688C167.188 110.688 166.646 110.771 166.062 110.938C165.521 111.104 164.958 111.271 164.375 111.438C163.833 111.604 163.312 111.646 162.812 111.562C162.396 111.896 161.875 112.125 161.25 112.25C160.667 112.333 160.021 112.417 159.312 112.5C159.271 112.708 159.312 112.854 159.438 112.938C159.562 112.979 159.583 113.104 159.5 113.312C159.75 113.604 160.062 113.812 160.438 113.938C160.854 114.062 161.271 114.188 161.688 114.312C162.146 114.438 162.542 114.604 162.875 114.812C163.208 114.979 163.438 115.271 163.562 115.688C164.188 115.688 164.729 115.833 165.188 116.125C165.646 116.417 166.021 116.771 166.312 117.188C166.604 117.604 166.812 118.062 166.938 118.562C167.104 119.021 167.188 119.438 167.188 119.812C167.312 120.146 167.458 120.292 167.625 120.25C167.792 120.208 167.979 120.292 168.188 120.5C168.312 121.042 168.625 121.604 169.125 122.188C169.625 122.729 170.021 123.333 170.312 124C170.396 125.042 170.458 125.979 170.5 126.812C170.542 127.604 170.396 128.417 170.062 129.25C169.438 130.792 168.562 132.167 167.438 133.375C166.354 134.583 165.104 135.667 163.688 136.625C162.312 137.542 160.833 138.333 159.25 139C157.667 139.667 156.125 140.229 154.625 140.688C154.458 140.646 154.292 140.646 154.125 140.688C153.958 140.729 153.917 140.625 154 140.375C153.667 140.667 153.292 140.854 152.875 140.938C152.5 141.021 152.083 141.042 151.625 141C151.167 141 150.688 140.979 150.188 140.938C149.729 140.896 149.292 140.917 148.875 141C148.583 140.708 148.312 140.417 148.062 140.125C147.854 139.875 147.688 139.542 147.562 139.125C147.354 139.125 147.25 139.021 147.25 138.812C147.292 138.604 147.229 138.5 147.062 138.5C147.312 138.083 147.417 137.854 147.375 137.812C147.375 137.729 147.312 137.667 147.188 137.625C147.104 137.583 147.021 137.542 146.938 137.5C146.854 137.417 146.833 137.312 146.875 137.188C147.042 136.854 147.104 136.479 147.062 136.062C147.021 135.604 146.979 135.146 146.938 134.688C146.896 134.229 146.917 133.792 147 133.375C147.125 132.958 147.438 132.625 147.938 132.375C149.354 132.542 150.688 132.5 151.938 132.25C153.229 131.958 154.438 131.562 155.562 131.062C156.688 130.562 157.75 130.021 158.75 129.438C159.792 128.854 160.812 128.333 161.812 127.875C161.938 127.5 162.104 127.188 162.312 126.938C162.562 126.688 162.812 126.458 163.062 126.25C163.312 126.042 163.542 125.812 163.75 125.562C163.958 125.312 164.104 125 164.188 124.625C164.229 124.333 164.146 124.167 163.938 124.125C163.771 124.042 163.688 123.875 163.688 123.625L163 123.438C162.208 122.979 161.312 122.604 160.312 122.312C159.312 121.979 158.458 121.625 157.75 121.25C157.292 121.5 156.854 121.562 156.438 121.438C156.062 121.312 155.562 121.188 154.938 121.062C153.521 120.979 152.146 120.833 150.812 120.625C149.521 120.417 148.271 120.042 147.062 119.5C146.979 119.292 146.875 119.104 146.75 118.938C146.625 118.771 146.396 118.729 146.062 118.812C145.812 118.479 145.562 118.167 145.312 117.875C145.062 117.542 144.833 117.188 144.625 116.812C144.708 116.312 144.771 115.896 144.812 115.562C144.854 115.188 144.729 114.833 144.438 114.5C144.604 113.958 144.729 113.521 144.812 113.188C144.896 112.854 144.896 112.417 144.812 111.875ZM210.375 104.438C210.458 105.354 210.604 106.146 210.812 106.812C211.021 107.479 211.25 108.125 211.5 108.75C211.708 109.333 211.896 109.917 212.062 110.5C212.271 111.042 212.417 111.708 212.5 112.5C212.167 113.583 211.917 114.583 211.75 115.5C211.625 116.417 211.479 117.375 211.312 118.375C210.646 119.833 210 121.125 209.375 122.25C208.75 123.375 208.25 124.354 207.875 125.188C207.667 125.396 207.479 125.646 207.312 125.938C207.188 126.188 207.042 126.458 206.875 126.75C206.792 126.875 206.688 127.062 206.562 127.312C206.438 127.562 206.333 127.729 206.25 127.812L205 127.375L204.75 128.938L203.875 129.188L203.25 129.938C202.458 131.312 201.625 132.479 200.75 133.438C199.875 134.354 198.875 135.188 197.75 135.938C196.667 136.646 195.417 137.312 194 137.938C192.625 138.562 191.062 139.25 189.312 140C188.604 139.917 187.979 139.875 187.438 139.875C186.938 139.833 186.458 139.792 186 139.75C185.208 139.75 184.229 139.688 183.062 139.562C182.938 139.229 182.75 139 182.5 138.875C182.25 138.75 182.021 138.688 181.812 138.688C181.104 138.354 180.562 137.875 180.188 137.25C179.854 136.583 179.521 135.875 179.188 135.125C178.979 134.667 178.771 134.25 178.562 133.875C178.354 133.458 178.125 133.042 177.875 132.625L178.938 132.312L177.562 130.812C177.479 130.688 177.375 130.583 177.25 130.5C177.125 130.375 177.021 130.25 176.938 130.125L176.875 129.125C176.75 126.25 176.688 123.625 176.688 121.25C176.729 118.833 177.062 116.688 177.688 114.812V114.125C177.812 113.208 177.938 112.458 178.062 111.875C178.188 111.25 178.292 110.667 178.375 110.125C178.5 109.208 178.688 108.354 178.938 107.562C179.521 107.438 179.958 107.208 180.25 106.875C180.542 106.5 180.792 106.167 181 105.875C181.583 105.833 181.979 105.917 182.188 106.125C182.396 106.333 182.604 106.667 182.812 107.125C183.021 107.5 183.271 107.917 183.562 108.375C183.896 108.833 184.375 109.188 185 109.438C185.083 109.771 185.188 110.125 185.312 110.5C185.479 110.833 185.646 111.208 185.812 111.625C186.146 112.333 186.438 113.083 186.688 113.875C186.979 114.625 187.146 115.354 187.188 116.062C186.771 116.854 186.438 117.771 186.188 118.812C185.979 119.854 185.833 120.917 185.75 122C185.708 123.042 185.729 124.062 185.812 125.062C185.938 126.021 186.125 126.833 186.375 127.5L186.75 128.312L187.812 128.188C189.062 127.854 190.188 127.5 191.188 127.125C192.229 126.708 193.188 126.229 194.062 125.688C194.938 125.146 195.771 124.521 196.562 123.812C197.354 123.062 198.188 122.208 199.062 121.25C199.938 120.292 200.688 119.208 201.312 118C201.979 116.75 202.521 115.458 202.938 114.125C203.396 112.792 203.729 111.479 203.938 110.188C204.188 108.854 204.354 107.604 204.438 106.438C205.146 106.188 205.5 105.688 205.5 104.938L205.375 104.25C205.208 104 205.208 103.708 205.375 103.375C205.625 102.583 206.208 101.979 207.125 101.562C207.792 101.979 208.375 102.438 208.875 102.938C209.417 103.438 209.917 103.938 210.375 104.438ZM221 133.5C220.542 135.167 220.125 136.438 219.75 137.312C219.417 138.146 218.896 139.021 218.188 139.938C217.646 139.854 217.271 139.917 217.062 140.125C216.854 140.333 216.625 140.521 216.375 140.688C216 140.771 215.729 140.771 215.562 140.688C215.396 140.604 215.25 140.5 215.125 140.375C215 140.292 214.833 140.188 214.625 140.062C214.458 139.979 214.188 139.938 213.812 139.938C213.729 139.604 213.625 139.292 213.5 139C213.417 138.708 213.146 138.604 212.688 138.688C212.771 138.354 212.792 138.083 212.75 137.875C212.708 137.625 212.646 137.417 212.562 137.25C212.521 137.042 212.479 136.854 212.438 136.688C212.396 136.479 212.417 136.229 212.5 135.938C212.292 135.938 212.125 135.792 212 135.5C211.875 135.208 211.729 134.917 211.562 134.625C211.688 133.875 211.812 133.167 211.938 132.5C212.062 131.833 212.208 131.208 212.375 130.625C212.583 130.042 212.75 129.458 212.875 128.875C213 128.292 212.938 127.688 212.688 127.062C212.854 127.188 212.979 127.167 213.062 127C213.146 126.792 213.208 126.542 213.25 126.25C213.292 125.917 213.312 125.604 213.312 125.312C213.312 124.979 213.292 124.708 213.25 124.5C213.667 123.417 214 122.312 214.25 121.188C214.542 120.021 214.792 118.875 215 117.75C215.25 116.625 215.5 115.521 215.75 114.438C216 113.354 216.333 112.354 216.75 111.438C217.208 111.354 217.708 111.417 218.25 111.625C218.833 111.792 219.188 112.021 219.312 112.312C220.396 111.479 221.354 110.479 222.188 109.312C223.021 108.104 223.875 106.938 224.75 105.812C225.625 104.688 226.583 103.688 227.625 102.812C228.708 101.938 230.062 101.417 231.688 101.25C232.521 101.875 233.438 102.521 234.438 103.188C235.479 103.812 236.333 104.646 237 105.688C237.333 105.854 237.604 106.042 237.812 106.25C238.062 106.417 238.354 106.604 238.688 106.812V107.562C239.188 108.021 239.583 108.562 239.875 109.188C240.208 109.771 240.5 110.417 240.75 111.125C241 111.792 241.25 112.479 241.5 113.188C241.75 113.854 242.042 114.5 242.375 115.125C242.292 115.333 242.25 115.521 242.25 115.688C242.25 115.812 242.271 115.958 242.312 116.125C242.396 116.292 242.458 116.458 242.5 116.625C242.542 116.792 242.542 117.021 242.5 117.312C242.375 119.146 241.771 120.625 240.688 121.75C239.646 122.875 238.375 123.812 236.875 124.562C235.375 125.271 233.771 125.875 232.062 126.375C230.354 126.875 228.812 127.417 227.438 128C227.438 128.167 227.5 128.25 227.625 128.25C227.792 128.25 227.854 128.354 227.812 128.562C228.812 129.188 229.604 129.688 230.188 130.062C230.771 130.438 231.312 130.75 231.812 131C232.354 131.25 232.917 131.479 233.5 131.688C234.125 131.854 234.979 132.062 236.062 132.312C237.146 132.562 237.979 132.771 238.562 132.938C239.188 133.062 239.75 133.188 240.25 133.312C240.75 133.396 241.25 133.479 241.75 133.562C242.292 133.604 243.042 133.667 244 133.75C244.375 134.125 244.688 134.583 244.938 135.125C245.229 135.625 245.417 136.146 245.5 136.688C245.583 137.188 245.604 137.688 245.562 138.188C245.521 138.646 245.375 139.021 245.125 139.312C245.167 139.438 245.25 139.5 245.375 139.5C245.542 139.458 245.708 139.458 245.875 139.5C245.625 139.667 245.417 139.875 245.25 140.125C245.083 140.375 244.917 140.625 244.75 140.875C244.583 141.125 244.396 141.333 244.188 141.5C243.979 141.708 243.688 141.833 243.312 141.875C242.021 142.375 240.396 142.396 238.438 141.938C236.479 141.521 234 140.729 231 139.562C229.5 138.979 228.271 138.479 227.312 138.062C226.396 137.604 225.583 137.167 224.875 136.75C224.208 136.292 223.583 135.812 223 135.312C222.458 134.812 221.792 134.208 221 133.5ZM229.938 112.062C229.479 112.729 228.958 113.333 228.375 113.875C227.833 114.417 227.292 114.979 226.75 115.562C226.25 116.104 225.792 116.729 225.375 117.438C224.958 118.104 224.667 118.896 224.5 119.812C225.958 119.646 227.479 119.25 229.062 118.625C230.646 117.958 232.146 117.333 233.562 116.75C233.396 115.458 232.938 114.417 232.188 113.625C231.479 112.833 230.729 112.312 229.938 112.062ZM280.438 104.812C280.479 105.104 280.479 105.333 280.438 105.5C280.438 105.625 280.417 105.75 280.375 105.875C280.375 106 280.375 106.146 280.375 106.312C280.375 106.438 280.417 106.646 280.5 106.938C279.625 108.354 278.604 109.333 277.438 109.875C276.312 110.375 275.083 110.75 273.75 111C272.417 111.208 271.042 111.438 269.625 111.688C268.25 111.938 266.875 112.479 265.5 113.312C264.958 113.104 264.458 113.104 264 113.312C263.583 113.521 262.958 113.583 262.125 113.5C261.875 113.75 261.562 113.938 261.188 114.062C260.812 114.146 260.438 114.25 260.062 114.375C260.229 114.75 260.292 115.146 260.25 115.562C260.25 115.938 260.312 116.25 260.438 116.5C261.896 116.625 263.5 116.604 265.25 116.438C267.042 116.271 268.792 116.167 270.5 116.125C270.542 116.333 270.521 116.479 270.438 116.562C270.354 116.604 270.333 116.708 270.375 116.875C270.667 117.083 270.958 117.354 271.25 117.688C271.542 117.979 271.833 118.271 272.125 118.562C272.417 118.854 272.708 119.104 273 119.312C273.333 119.479 273.708 119.542 274.125 119.5C274.292 119.833 274.396 120.208 274.438 120.625C274.521 121 274.479 121.396 274.312 121.812C273.646 122.271 272.979 122.75 272.312 123.25C271.646 123.708 270.938 124.125 270.188 124.5C269.479 124.875 268.708 125.188 267.875 125.438C267.083 125.646 266.188 125.729 265.188 125.688C264.979 125.688 264.812 125.688 264.688 125.688C264.604 125.688 264.479 125.625 264.312 125.5C263.979 125.708 263.5 125.771 262.875 125.688C262.292 125.604 261.833 125.667 261.5 125.875C261.042 125.667 260.479 125.583 259.812 125.625C259.188 125.625 258.625 125.542 258.125 125.375C257.458 126.25 256.854 127.188 256.312 128.188C255.771 129.188 255.292 130.25 254.875 131.375C256.292 131.583 257.458 131.667 258.375 131.625C259.333 131.583 260.229 131.521 261.062 131.438C261.896 131.312 262.75 131.208 263.625 131.125C264.5 131 265.604 130.958 266.938 131C267.771 130.542 268.75 130.25 269.875 130.125C271.042 129.958 272.104 129.708 273.062 129.375C273.396 129.5 273.688 129.729 273.938 130.062C274.188 130.354 274.417 130.646 274.625 130.938C274.875 131.188 275.125 131.417 275.375 131.625C275.625 131.833 275.938 131.917 276.312 131.875C276.479 132.042 276.583 132.25 276.625 132.5C276.708 132.708 276.771 132.917 276.812 133.125C276.854 133.333 276.917 133.521 277 133.688C277.125 133.812 277.312 133.854 277.562 133.812C276.938 135.188 276.208 136.25 275.375 137C274.583 137.708 273.667 138.25 272.625 138.625C271.583 139 270.417 139.292 269.125 139.5C267.875 139.708 266.479 139.958 264.938 140.25C264.562 140.333 264.25 140.312 264 140.188C263.75 140.104 263.458 140.062 263.125 140.062C262.167 140.271 261.021 140.458 259.688 140.625C258.354 140.792 257 140.854 255.625 140.812C254.25 140.771 252.938 140.583 251.688 140.25C250.438 139.958 249.417 139.417 248.625 138.625C248.292 138.333 248.062 138 247.938 137.625C247.854 137.208 247.583 136.896 247.125 136.688C247.083 136.146 247 135.542 246.875 134.875C246.75 134.208 246.625 133.521 246.5 132.812C246.375 132.062 246.271 131.333 246.188 130.625C246.146 129.917 246.188 129.271 246.312 128.688C246.438 128.062 246.688 127.5 247.062 127C247.479 126.5 247.625 125.958 247.5 125.375C247.708 125.333 247.833 125.229 247.875 125.062C247.917 124.854 248.083 124.771 248.375 124.812C248.625 124.062 248.896 123.354 249.188 122.688C249.479 122.021 249.771 121.375 250.062 120.75C250.396 120.125 250.708 119.5 251 118.875C251.333 118.208 251.646 117.479 251.938 116.688C251.354 116.146 250.917 115.562 250.625 114.938C250.375 114.271 250.188 113.625 250.062 113C249.938 112.333 249.833 111.667 249.75 111C249.667 110.292 249.521 109.583 249.312 108.875C249.729 108.25 250.229 107.75 250.812 107.375C251.438 106.958 252.104 106.625 252.812 106.375C253.521 106.125 254.292 105.917 255.125 105.75C255.958 105.583 256.833 105.396 257.75 105.188C259.417 104.646 260.896 104.229 262.188 103.938C263.521 103.646 264.812 103.417 266.062 103.25C267.354 103.042 268.688 102.854 270.062 102.688C271.438 102.521 273 102.271 274.75 101.938C275.125 102.312 275.479 102.5 275.812 102.5C275.979 102.125 276.167 102.021 276.375 102.188C276.625 102.312 276.729 102.188 276.688 101.812C277.104 102.521 277.625 103.125 278.25 103.625C278.917 104.083 279.646 104.479 280.438 104.812ZM279.938 111.875C280.229 111 280.688 110.25 281.312 109.625C281.979 109 282.688 108.479 283.438 108.062C284.229 107.604 285.042 107.229 285.875 106.938C286.708 106.646 287.5 106.396 288.25 106.188C289.917 105.479 291.688 104.812 293.562 104.188C295.479 103.521 297.417 102.938 299.375 102.438C301.375 101.938 303.417 101.625 305.5 101.5C307.583 101.333 309.771 101.583 312.062 102.25C312.188 102.667 312.375 103.062 312.625 103.438C312.875 103.812 313.125 104.188 313.375 104.562C313.667 104.938 313.917 105.312 314.125 105.688C314.333 106.021 314.458 106.375 314.5 106.75C314.917 107.125 315.25 107.542 315.5 108C315.75 108.417 315.792 108.979 315.625 109.688C315.208 110.021 314.792 110.333 314.375 110.625C314 110.875 313.583 111.104 313.125 111.312C311.583 110.938 310.021 110.812 308.438 110.938C306.854 111.062 305.438 111.167 304.188 111.25C303.812 110.875 303.354 110.688 302.812 110.688C302.312 110.688 301.771 110.771 301.188 110.938C300.646 111.104 300.083 111.271 299.5 111.438C298.958 111.604 298.438 111.646 297.938 111.562C297.521 111.896 297 112.125 296.375 112.25C295.792 112.333 295.146 112.417 294.438 112.5C294.396 112.708 294.438 112.854 294.562 112.938C294.688 112.979 294.708 113.104 294.625 113.312C294.875 113.604 295.188 113.812 295.562 113.938C295.979 114.062 296.396 114.188 296.812 114.312C297.271 114.438 297.667 114.604 298 114.812C298.333 114.979 298.562 115.271 298.688 115.688C299.312 115.688 299.854 115.833 300.312 116.125C300.771 116.417 301.146 116.771 301.438 117.188C301.729 117.604 301.938 118.062 302.062 118.562C302.229 119.021 302.312 119.438 302.312 119.812C302.438 120.146 302.583 120.292 302.75 120.25C302.917 120.208 303.104 120.292 303.312 120.5C303.438 121.042 303.75 121.604 304.25 122.188C304.75 122.729 305.146 123.333 305.438 124C305.521 125.042 305.583 125.979 305.625 126.812C305.667 127.604 305.521 128.417 305.188 129.25C304.562 130.792 303.688 132.167 302.562 133.375C301.479 134.583 300.229 135.667 298.812 136.625C297.438 137.542 295.958 138.333 294.375 139C292.792 139.667 291.25 140.229 289.75 140.688C289.583 140.646 289.417 140.646 289.25 140.688C289.083 140.729 289.042 140.625 289.125 140.375C288.792 140.667 288.417 140.854 288 140.938C287.625 141.021 287.208 141.042 286.75 141C286.292 141 285.812 140.979 285.312 140.938C284.854 140.896 284.417 140.917 284 141C283.708 140.708 283.438 140.417 283.188 140.125C282.979 139.875 282.812 139.542 282.688 139.125C282.479 139.125 282.375 139.021 282.375 138.812C282.417 138.604 282.354 138.5 282.188 138.5C282.438 138.083 282.542 137.854 282.5 137.812C282.5 137.729 282.438 137.667 282.312 137.625C282.229 137.583 282.146 137.542 282.062 137.5C281.979 137.417 281.958 137.312 282 137.188C282.167 136.854 282.229 136.479 282.188 136.062C282.146 135.604 282.104 135.146 282.062 134.688C282.021 134.229 282.042 133.792 282.125 133.375C282.25 132.958 282.562 132.625 283.062 132.375C284.479 132.542 285.812 132.5 287.062 132.25C288.354 131.958 289.562 131.562 290.688 131.062C291.812 130.562 292.875 130.021 293.875 129.438C294.917 128.854 295.938 128.333 296.938 127.875C297.062 127.5 297.229 127.188 297.438 126.938C297.688 126.688 297.938 126.458 298.188 126.25C298.438 126.042 298.667 125.812 298.875 125.562C299.083 125.312 299.229 125 299.312 124.625C299.354 124.333 299.271 124.167 299.062 124.125C298.896 124.042 298.812 123.875 298.812 123.625L298.125 123.438C297.333 122.979 296.438 122.604 295.438 122.312C294.438 121.979 293.583 121.625 292.875 121.25C292.417 121.5 291.979 121.562 291.562 121.438C291.188 121.312 290.688 121.188 290.062 121.062C288.646 120.979 287.271 120.833 285.938 120.625C284.646 120.417 283.396 120.042 282.188 119.5C282.104 119.292 282 119.104 281.875 118.938C281.75 118.771 281.521 118.729 281.188 118.812C280.938 118.479 280.688 118.167 280.438 117.875C280.188 117.542 279.958 117.188 279.75 116.812C279.833 116.312 279.896 115.896 279.938 115.562C279.979 115.188 279.854 114.833 279.562 114.5C279.729 113.958 279.854 113.521 279.938 113.188C280.021 112.854 280.021 112.417 279.938 111.875Z" fill="black"/>
</svg>
